<svg xmlns="http://www.w3.org/2000/svg" version="1.1" xmlns:xlink="http://www.w3.org/1999/xlink" xmlns:svgjs="http://svgjs.dev/svgjs" width="1500" height="939" viewBox="0 0 1500 939"><g transform="matrix(1,0,0,1,-0.9090909090909918,-1.5145161290323017)"><svg viewBox="0 0 396 248" data-background-color="#000000" preserveAspectRatio="xMidYMid meet" height="939" width="1500" xmlns="http://www.w3.org/2000/svg" xmlns:xlink="http://www.w3.org/1999/xlink"><g id="tight-bounds" transform="matrix(1,0,0,1,0.2400000000000091,0.4000000000000057)"><svg viewBox="0 0 395.52 247.2" height="247.2" width="395.52"><g><svg></svg></g><g><svg viewBox="0 0 395.52 247.2" height="247.2" width="395.52"><g transform="matrix(1,0,0,1,75.54432,88.57385800738007)"><svg viewBox="0 0 244.43135999999998 70.05228398523985" height="70.05228398523985" width="244.43135999999998"><g><svg viewBox="0 0 244.43135999999998 70.05228398523985" height="70.05228398523985" width="244.43135999999998"><g><svg viewBox="0 0 244.43135999999998 70.05228398523985" height="70.05228398523985" width="244.43135999999998"><g><svg viewBox="0 0 244.43135999999998 70.05228398523985" height="70.05228398523985" width="244.43135999999998"><g id="textblocktransform"><svg viewBox="0 0 244.43135999999998 70.05228398523985" height="70.05228398523985" width="244.43135999999998" id="textblock"><g><svg viewBox="0 0 244.43135999999998 70.05228398523985" height="70.05228398523985" width="244.43135999999998"><g transform="matrix(1,0,0,1,0,0)"><svg width="244.43135999999998" viewBox="4.49 -35.01 158.78 45.51" height="70.05228398523985" data-palette-color="#ffffff"><path d="M4.49-35.01L9.5-35.01 9.5 0 4.49 0 4.49-35.01ZM17.99-5.81L17.99-21.19Q17.99-22.19 18.37-23.07 18.75-23.95 19.39-24.6 20.04-25.24 20.92-25.62 21.8-26 22.78-26L22.78-26 31.39-26Q32.35-26 33.2-25.65 34.06-25.29 34.7-24.67 35.35-24.05 35.75-23.21 36.15-22.36 36.18-21.41L36.18-21.41 36.18-26 40.99-26 40.99 5.69Q40.99 6.69 40.61 7.57 40.23 8.45 39.58 9.09 38.94 9.74 38.06 10.12 37.18 10.5 36.18 10.5L36.18 10.5 20.99 10.5 20.99 5.69 36.18 5.69 36.18-1 22.78-1Q21.8-1 20.92-1.38 20.04-1.76 19.39-2.4 18.75-3.05 18.37-3.93 17.99-4.81 17.99-5.81L17.99-5.81ZM22.78-5.81L36.18-5.81 36.18-21.19 22.78-21.19 22.78-5.81ZM71.48-21.19L71.48-4.81Q71.48-3.81 71.1-2.93 70.72-2.05 70.08-1.4 69.43-0.76 68.56-0.38 67.7 0 66.69 0L66.69 0 53.78 0Q52.8 0 51.92-0.38 51.04-0.76 50.4-1.4 49.75-2.05 49.37-2.93 48.99-3.81 48.99-4.81L48.99-4.81 48.99-21.19Q48.99-22.19 49.37-23.07 49.75-23.95 50.4-24.6 51.04-25.24 51.92-25.62 52.8-26 53.78-26L53.78-26 66.69-26Q67.7-26 68.56-25.62 69.43-25.24 70.08-24.6 70.72-23.95 71.1-23.07 71.48-22.19 71.48-21.19L71.48-21.19ZM66.69-21.19L53.78-21.19 53.78-4.81 66.69-4.81 66.69-21.19ZM94.18-21.19L84.27-21.19 84.27 0 79.48 0 79.48-26 84.27-26 84.27-21.41Q84.32-22.36 84.71-23.21 85.1-24.05 85.75-24.67 86.39-25.29 87.25-25.65 88.1-26 89.08-26L89.08-26 94.18-26Q95.18-26 96.05-25.62 96.92-25.24 97.58-24.6 98.23-23.95 98.61-23.07 98.99-22.19 98.99-21.19L98.99-21.19 98.99-16.8 94.18-16.8 94.18-21.19ZM142.44-14.99L125.45-14.99Q124.43-14.99 123.51-15.39 122.59-15.8 121.91-16.47 121.23-17.14 120.84-18.05 120.45-18.97 120.45-20L120.45-20 120.45-30Q120.45-31.03 120.84-31.95 121.23-32.86 121.91-33.53 122.59-34.2 123.51-34.61 124.43-35.01 125.45-35.01L125.45-35.01 142.44-35.01Q143.47-35.01 144.38-34.61 145.3-34.2 145.98-33.53 146.67-32.86 147.06-31.95 147.45-31.03 147.45-30L147.45-30 147.45-25.49 142.44-25.49 142.44-30 125.45-30 125.45-20 142.44-20Q143.47-20 144.38-19.6 145.3-19.21 145.98-18.53 146.67-17.85 147.06-16.93 147.45-16.02 147.45-14.99L147.45-14.99 147.45-5Q147.45-3.98 147.06-3.06 146.67-2.15 145.98-1.46 145.3-0.78 144.38-0.39 143.47 0 142.44 0L142.44 0 124.96 0Q123.94 0 123.02-0.39 122.11-0.78 121.42-1.46 120.74-2.15 120.35-3.06 119.96-3.98 119.96-5L119.96-5 119.96-9.5 124.96-9.5 124.96-5 142.44-5 142.44-14.99ZM155.97 0L155.97-7.3 163.27-7.3 163.27 0 155.97 0Z" opacity="1" transform="matrix(1,0,0,1,0,0)" fill="#ffffff" class="wordmark-text-0" data-fill-palette-color="primary" id="text-0"></path></svg></g></svg></g></svg></g></svg></g></svg></g></svg></g></svg></g><path d="M189.704 82.574L189.704 25.664 385.575 25.664 385.575 221.536 189.704 221.536 189.704 164.626 196.021 164.626 196.021 215.218 379.258 215.218 379.258 31.982 196.021 31.982 196.021 82.574Z" fill="#ffffff" stroke="transparent" data-fill-palette-color="tertiary"></path></svg></g><defs></defs></svg><rect width="395.52" height="247.2" fill="none" stroke="none" visibility="hidden"></rect></g></svg></g></svg>