<?xml version="1.0" encoding="UTF-8"?>
<svg version="1.1" xmlns="http://www.w3.org/2000/svg" width="2000" height="1252">
<path d="M0 0 C326.7 0 653.4 0 990 0 C990 326.7 990 653.4 990 990 C663.3 990 336.6 990 0 990 C0 894.96 0 799.92 0 702 C10.89 702 21.78 702 33 702 C33 786.15 33 870.3 33 957 C337.92 957 642.84 957 957 957 C957 652.08 957 347.16 957 33 C652.08 33 347.16 33 33 33 C33 117.15 33 201.3 33 288 C22.11 288 11.22 288 0 288 C0 192.96 0 97.92 0 0 Z " fill="#EC3A42" transform="translate(959,131)"/>
<path d="M0 0 C1.85234505 -0.01073296 1.85234505 -0.01073296 3.74211121 -0.02168274 C5.10801672 -0.02452284 6.4739225 -0.02723459 7.83982849 -0.02983093 C9.28068199 -0.03609871 10.72153389 -0.04274579 12.16238403 -0.04974365 C16.89266338 -0.07075554 21.62294293 -0.08114588 26.35325623 -0.09111023 C27.98499506 -0.09515937 29.61673372 -0.09927634 31.24847221 -0.10346031 C38.91846834 -0.12250859 46.58845489 -0.1367383 54.25847012 -0.14507228 C63.09404247 -0.15483256 71.92936348 -0.18112183 80.76484734 -0.22157317 C87.60496048 -0.25180732 94.44500189 -0.2665482 101.28518051 -0.26985329 C105.36509516 -0.27219618 109.44474122 -0.28105617 113.52458382 -0.30631447 C117.36849429 -0.32972737 121.21196186 -0.33377596 125.05592537 -0.32355309 C126.4590859 -0.32306075 127.86226921 -0.32929121 129.26536179 -0.34310913 C141.56076805 -0.45732318 151.73921803 1.65554546 160.97434998 10.14717102 C167.11103795 16.20840792 172.60457955 23.41501262 173.09460449 32.33656311 C173.09238388 33.12710083 173.09016327 33.91763855 173.08787537 34.73213196 C173.08779984 35.63276367 173.0877243 36.53339539 173.08764648 37.46131897 C173.0824852 38.4249939 173.07732391 39.38866882 173.07200623 40.38154602 C173.0698838 41.87128937 173.0698838 41.87128937 173.06771851 43.39112854 C173.06212586 46.55984014 173.04957467 49.72848081 173.03684998 52.89717102 C173.03183403 55.04690958 173.02727129 57.19664925 173.0231781 59.34638977 C173.01301019 64.6133661 172.99343324 69.88018925 172.97434998 75.14717102 C160.10434998 75.14717102 147.23434998 75.14717102 133.97434998 75.14717102 C133.97434998 63.59717102 133.97434998 52.04717102 133.97434998 40.14717102 C90.74434998 40.14717102 47.51434998 40.14717102 2.97434998 40.14717102 C2.97434998 65.22717102 2.97434998 90.30717102 2.97434998 116.14717102 C17.3834906 116.09496399 17.3834906 116.09496399 32.08372498 116.04170227 C38.18138366 116.02636772 44.2790283 116.01180094 50.37669373 116.00068665 C60.04812924 115.98291636 69.71948609 115.96207594 79.39085388 115.92085266 C86.43584959 115.8908385 93.48078121 115.87156965 100.52583909 115.86490554 C104.25202007 115.86101351 107.97801779 115.85194367 111.70413971 115.82998085 C115.87599627 115.80559294 120.04753943 115.80520868 124.21946716 115.80659485 C125.43867355 115.79580902 126.65787994 115.78502319 127.91403198 115.77391052 C141.36970108 115.82206286 152.64898594 118.65081569 162.81809998 127.80732727 C168.61171141 134.05910696 173.06752696 142.53645506 173.121521 151.16073608 C173.13225395 152.34415588 173.13225395 152.34415588 173.14320374 153.55148315 C173.14589264 154.40814072 173.14858154 155.26479828 173.15135193 156.14741516 C173.15792313 157.05691925 173.16449432 157.96642334 173.17126465 158.90348816 C173.19097105 161.91310209 173.20265653 164.92266609 173.21263123 167.93232727 C173.21670675 168.96302275 173.22078228 169.99371822 173.22498131 171.0556469 C173.24583421 176.51478245 173.26013735 181.97389294 173.26951599 187.43305969 C173.28055763 193.05274901 173.31493406 198.67203989 173.35468769 204.29158878 C173.38092508 208.62839457 173.38921432 212.96510662 173.39279747 217.30198479 C173.39764775 219.37228004 173.40921689 221.44257156 173.42783546 223.51278877 C173.55519801 238.61743426 172.93869627 250.66711927 161.97434998 262.14717102 C153.51288953 270.02811547 143.30165362 273.25493107 131.86677551 273.28761292 C130.06295914 273.29617813 130.06295914 273.29617813 128.22270203 273.30491638 C126.91661987 273.30603424 125.61053772 273.3071521 124.26487732 273.30830383 C122.86476004 273.31293719 121.46464401 273.31796254 120.06452942 273.323349 C116.270812 273.33642733 112.47711225 273.3429093 108.68337584 273.34735966 C106.30829478 273.35029849 103.93321846 273.35440485 101.5581398 273.35886383 C94.11293257 273.37252831 86.66773627 273.38219943 79.22251737 273.38606572 C70.65473123 273.39054048 62.0871051 273.40806568 53.51936758 273.43706632 C46.87962027 273.45875348 40.23991775 273.46877378 33.60013545 273.47010684 C29.64267156 273.47115008 25.68535828 273.47695422 21.72793198 273.49492645 C17.99977195 273.5115288 14.27187378 273.51350442 10.54368973 273.50478745 C8.54216337 273.50366241 6.54064523 273.51728639 4.53916931 273.53153992 C-9.18373965 273.46886892 -19.59582964 270.91656293 -29.83815002 261.58467102 C-30.56002502 260.78029602 -31.28190002 259.97592102 -32.02565002 259.14717102 C-32.70627502 258.40467102 -33.38690002 257.66217102 -34.08815002 256.89717102 C-38.31635735 250.89584449 -41.16091242 244.13638445 -41.13917542 236.74580383 C-41.13909988 235.88521362 -41.13902435 235.02462341 -41.13894653 234.13795471 C-41.13120461 232.75806366 -41.13120461 232.75806366 -41.12330627 231.35029602 C-41.12189133 230.40152588 -41.12047638 229.45275574 -41.11901855 228.47523499 C-41.11342744 225.4491814 -41.10087655 222.42320219 -41.08815002 219.39717102 C-41.08313388 217.34378667 -41.07857117 215.29040117 -41.07447815 213.23701477 C-41.06431243 208.20701525 -41.0447352 203.17717625 -41.02565002 198.14717102 C-27.82565002 198.14717102 -14.62565002 198.14717102 -1.02565002 198.14717102 C-1.02565002 209.69717102 -1.02565002 221.24717102 -1.02565002 233.14717102 C43.52434998 233.14717102 88.07434998 233.14717102 133.97434998 233.14717102 C133.97434998 207.73717102 133.97434998 182.32717102 133.97434998 156.14717102 C119.00640076 156.2167804 119.00640076 156.2167804 103.73606873 156.28779602 C97.40598644 156.30823951 91.07592817 156.32766156 84.74583435 156.34248352 C74.70335183 156.36618736 64.66100388 156.39400301 54.61863708 156.44892883 C47.30373602 156.4889178 39.98894449 156.51463245 32.67393714 156.523525 C28.80409001 156.52871945 24.9345561 156.54084494 21.0648098 156.57009125 C17.41466995 156.59745163 13.76496923 156.60557498 10.11473656 156.59960175 C8.15228517 156.60120903 6.18988047 156.6226231 4.22755432 156.64485168 C-9.03775395 156.58371581 -18.28260757 152.63095982 -27.77565002 143.45576477 C-35.09780924 135.56613821 -37.16939265 126.71914808 -37.20265198 116.23872375 C-37.20922318 115.33897324 -37.21579437 114.43922272 -37.2225647 113.51220703 C-37.24227 110.5350587 -37.25395637 107.55796085 -37.26393127 104.58076477 C-37.2680068 103.56110186 -37.27208233 102.54143894 -37.27628136 101.49087715 C-37.29713387 96.09009632 -37.31143714 90.68934081 -37.32081604 85.28852844 C-37.33185717 79.72937131 -37.36623309 74.170617 -37.40598774 68.61160183 C-37.43222736 64.32111911 -37.44051457 60.03073113 -37.44409752 55.74017525 C-37.44894728 53.69220839 -37.46051494 51.6442453 -37.47913551 49.59635735 C-37.61276217 33.92134066 -36.54423465 21.96761351 -25.17799377 10.24092102 C-17.93644379 3.44566935 -9.90339446 0.0394269 0 0 Z " fill="#EC3A42" transform="translate(1321.025650024414,448.8528289794922)"/>
<path d="M0 0 C0.79246124 -0.0065712 1.58492249 -0.0131424 2.40139771 -0.01991272 C5.0214244 -0.03960419 7.64139376 -0.05130184 10.26147461 -0.0612793 C11.6089317 -0.06739259 11.6089317 -0.06739259 12.98361015 -0.07362938 C17.74248905 -0.09447693 22.50133926 -0.10878181 27.26025391 -0.11816406 C32.15356032 -0.1291987 37.04640828 -0.1635682 41.93955326 -0.20333576 C45.72048228 -0.22960353 49.50130399 -0.23786509 53.28231621 -0.24144554 C55.0846712 -0.2462888 56.88702214 -0.25783758 58.68928719 -0.27648354 C71.82418553 -0.40388007 82.55895405 0.4170879 93.09350586 9.17700195 C97.48407966 13.55049181 100.34981838 18.674002 103.10131836 24.17700195 C103.43131836 16.25700195 103.76131836 8.33700195 104.10131836 0.17700195 C116.64131836 0.17700195 129.18131836 0.17700195 142.10131836 0.17700195 C142.19181314 32.34784512 142.26339417 64.51863961 142.30557968 96.68957998 C142.31058228 100.49080744 142.3157596 104.29203464 142.32104492 108.09326172 C142.32209416 108.84999246 142.32314341 109.60672319 142.32422444 110.38638517 C142.34161232 122.62659509 142.37314105 134.86672959 142.40992954 147.10689483 C142.44738407 159.67381115 142.46956373 172.24068806 142.47767234 184.8076579 C142.48315078 192.55725249 142.5004309 200.30663386 142.53298423 208.0561628 C142.55670055 214.00641209 142.55912683 219.95655296 142.55374908 225.90685081 C142.55484729 228.3420429 142.562774 230.77724324 142.57814026 233.21238708 C142.59813792 236.54567765 142.59322123 239.87806715 142.58233643 243.21138 C142.59398779 244.16763962 142.60563916 245.12389923 142.61764359 246.1091364 C142.51670316 257.60070487 138.26337711 266.49219786 130.58178711 274.82543945 C122.06538139 282.98958509 111.4597489 284.92337063 100.08081055 284.74462891 C98.22012688 284.74572411 98.22012688 284.74572411 96.32185364 284.74684143 C92.96047905 284.74397986 89.60069072 284.71912251 86.23959637 284.68397164 C82.71229023 284.6524522 79.18495698 284.64975747 75.65753174 284.6438446 C68.99598837 284.6283805 62.33486135 284.58745453 55.6735003 284.53709716 C48.08213172 284.48097018 40.49074196 284.45365888 32.89921713 284.42861998 C17.29963626 284.37653045 1.70062802 284.28493382 -13.89868164 284.17700195 C-13.89868164 271.63700195 -13.89868164 259.09700195 -13.89868164 246.17700195 C25.04131836 246.17700195 63.98131836 246.17700195 104.10131836 246.17700195 C104.10131836 229.34700195 104.10131836 212.51700195 104.10131836 195.17700195 C92.39920898 195.24661133 92.39920898 195.24661133 80.46069336 195.31762695 C75.50234662 195.33807815 70.54405229 195.35733491 65.58569336 195.37231445 C57.72490566 195.39617542 49.86430531 195.42432691 42.00366211 195.47875977 C35.66237593 195.52239397 29.32129082 195.54617634 22.97986603 195.55651093 C20.5670887 195.56387076 18.1543217 195.57824242 15.74163055 195.59992218 C-14.87711108 195.86397612 -14.87711108 195.86397612 -26.89868164 184.17700195 C-37.07303175 173.22876391 -38.04991268 160.62316063 -38.04394531 146.35180664 C-38.04730392 145.1897319 -38.05066254 144.02765717 -38.05412292 142.83036804 C-38.06359211 139.00319336 -38.06557405 135.17606261 -38.06665039 131.34887695 C-38.0690524 129.35236801 -38.07145636 127.35585906 -38.07411081 125.35935044 C-38.08223245 119.08485996 -38.08469718 112.81038381 -38.08398438 106.53588867 C-38.08338443 100.09211111 -38.09392498 93.64841748 -38.10972804 87.20466113 C-38.12286402 81.6476664 -38.12816573 76.0906989 -38.12752897 70.53368878 C-38.12727571 67.22574064 -38.1309708 63.91788329 -38.14070702 60.6099472 C-38.15056874 56.91315361 -38.14760438 53.21657284 -38.14160156 49.51977539 C-38.15003082 47.90618385 -38.15003082 47.90618385 -38.15863037 46.25999451 C-38.10252075 32.5747031 -36.31982341 20.65219968 -26.71118164 10.36450195 C-18.80030379 2.89017757 -10.68414495 0.03859049 0 0 Z M1.10131836 38.17700195 C1.10131836 77.44700195 1.10131836 116.71700195 1.10131836 157.17700195 C35.09131836 157.17700195 69.08131836 157.17700195 104.10131836 157.17700195 C104.10131836 117.90700195 104.10131836 78.63700195 104.10131836 38.17700195 C70.11131836 38.17700195 36.12131836 38.17700195 1.10131836 38.17700195 Z " fill="#ED3A42" transform="translate(524.898681640625,518.822998046875)"/>
<path d="M0 0 C1.12320648 -0.00846954 2.24641296 -0.01693909 3.40365601 -0.02566528 C7.09563704 -0.04895456 10.78719928 -0.05005925 14.47924805 -0.04882812 C17.06080795 -0.05593493 19.64236628 -0.06363469 22.22392273 -0.07189941 C27.62801143 -0.08532606 33.03193814 -0.0871038 38.43603516 -0.08105469 C44.65452598 -0.07442118 50.87242256 -0.09726318 57.09079295 -0.13436842 C63.1056254 -0.16893741 69.12014562 -0.17538857 75.13509178 -0.17127991 C77.67903601 -0.17296624 80.22298842 -0.18256147 82.7668705 -0.20042419 C86.33463415 -0.22271946 89.90098849 -0.21285631 93.46875 -0.1953125 C94.50550369 -0.20857574 95.54225739 -0.22183899 96.61042786 -0.23550415 C107.82370487 -0.10828318 117.17590969 4.08141699 125.22924805 11.81054688 C131.21964401 18.91815701 134.5372983 26.98448232 134.57563782 36.2177887 C134.58637077 37.99440636 134.58637077 37.99440636 134.59732056 39.80691528 C134.60000946 41.10305756 134.60269836 42.39919983 134.60546875 43.73461914 C134.61173688 45.11636016 134.61838399 46.49809951 134.62538147 47.87983704 C134.64638975 52.4153222 134.65678356 56.95080757 134.66674805 61.48632812 C134.67079737 63.05120295 134.67491434 64.6160776 134.67909813 66.18095207 C134.69814585 73.53699371 134.71237551 80.89302537 134.7207101 88.24908692 C134.73046927 96.72130089 134.75675584 105.19325268 134.79721099 113.66537434 C134.82745213 120.2252351 134.84218668 126.78502107 134.84549111 133.34495014 C134.84783326 137.25719565 134.85668343 141.16916096 134.88195229 145.08133125 C134.90537748 148.76765828 134.909409 152.45352352 134.8991909 156.13990593 C134.89846606 158.12138728 134.91745698 160.10284595 134.93725586 162.08422852 C134.86984925 173.77343375 132.01647607 183.03362556 124.2409668 191.91992188 C114.02908872 200.99714683 103.85444694 203.89940852 90.31665039 203.79223633 C89.26636154 203.79588699 88.21607269 203.79953766 87.13395691 203.80329895 C83.69810286 203.81133644 80.26273054 203.7978527 76.8269043 203.78320312 C74.42037964 203.78268378 72.01385456 203.78320435 69.60733032 203.78471375 C64.57921972 203.78462433 59.55127047 203.77425626 54.52319336 203.75610352 C48.09313398 203.73339325 41.66330953 203.73288013 35.23322105 203.73962116 C30.26941863 203.74296929 25.30566932 203.73631552 20.34187698 203.72649193 C17.97131249 203.72265606 15.60074208 203.72148499 13.23017502 203.72307777 C9.91383433 203.72345046 6.59779009 203.71077192 3.28149414 203.69458008 C2.31190262 203.6970575 1.3423111 203.69953491 0.34333801 203.7020874 C-11.06724922 203.61360204 -21.22912109 201.15778969 -29.9074707 193.30664062 C-40.43472653 181.9771218 -41.88140998 170.27608564 -41.83032227 155.234375 C-41.8338269 153.95175278 -41.83733154 152.66913055 -41.84094238 151.34764099 C-41.84999105 147.85796442 -41.8465535 144.36840729 -41.84018421 140.87872887 C-41.83508495 137.2092293 -41.8398265 133.53973927 -41.84295654 129.87023926 C-41.84658482 123.71051212 -41.84182708 117.5508331 -41.83227539 111.39111328 C-41.82139303 104.29173504 -41.82491941 97.19247172 -41.8359282 90.09309626 C-41.84503363 83.97388307 -41.84627049 77.85470428 -41.84105086 71.73548651 C-41.837949 68.09118106 -41.83747233 64.44692945 -41.84412384 60.80262756 C-41.85102764 56.73683986 -41.8414316 52.67124715 -41.83032227 48.60546875 C-41.83437073 47.41348373 -41.83841919 46.22149872 -41.84259033 44.99339294 C-41.77931649 32.44579415 -39.85149953 19.6998882 -30.5715332 10.41992188 C-20.81669742 2.52062551 -12.45057747 -0.03498924 0 0 Z M-2.5715332 38.41992188 C-2.5715332 79.99992188 -2.5715332 121.57992187 -2.5715332 164.41992188 C30.0984668 164.41992188 62.7684668 164.41992188 96.4284668 164.41992188 C96.4284668 122.83992187 96.4284668 81.25992188 96.4284668 38.41992188 C63.7584668 38.41992188 31.0884668 38.41992188 -2.5715332 38.41992188 Z " fill="#EC3A42" transform="translate(769.571533203125,518.580078125)"/>
<path d="M0 0 C12.87 0 25.74 0 39 0 C39.495 11.385 39.495 11.385 40 23 C41.32 20.36 42.64 17.72 44 15 C49.87248639 7.47087834 57.56345914 1.95986015 67 0 C68.80464158 -0.10485339 70.61257738 -0.15832565 72.42016602 -0.17700195 C73.50552139 -0.18983719 74.59087677 -0.20267242 75.7091217 -0.21589661 C77.46379005 -0.22697701 77.46379005 -0.22697701 79.25390625 -0.23828125 C81.07075172 -0.25038887 81.07075172 -0.25038887 82.92430115 -0.26274109 C85.49061659 -0.27657314 88.05695036 -0.28729922 90.62329102 -0.29516602 C94.52331086 -0.31232755 98.42247162 -0.3562178 102.32226562 -0.40039062 C104.82030629 -0.41052257 107.31835414 -0.4190371 109.81640625 -0.42578125 C111.54982018 -0.45204338 111.54982018 -0.45204338 113.31825256 -0.47883606 C124.94045293 -0.4481327 134.63729117 2.70249748 143 11 C150.55997117 20.34657267 153.169605 29.4011317 153.09765625 41.23828125 C153.09553383 42.55943184 153.09553383 42.55943184 153.09336853 43.90727234 C153.08778937 46.70905003 153.07524071 49.51074662 153.0625 52.3125 C153.05748231 54.21679572 153.05291987 56.12109269 153.04882812 58.02539062 C153.03867941 62.68364983 153.01909995 67.34173455 153 72 C140.46 72 127.92 72 115 72 C115 60.78 115 49.56 115 38 C89.92 38 64.84 38 39 38 C39 92.45 39 146.9 39 203 C26.13 203 13.26 203 0 203 C0 136.01 0 69.02 0 0 Z " fill="#EC3A42" transform="translate(965,519)"/>
<path d="M0 0 C13.2 0 26.4 0 40 0 C40.02258433 34.63416967 40.04049768 69.26833676 40.05106533 103.90251219 C40.05231611 107.98701009 40.05361042 112.07150798 40.05493164 116.15600586 C40.05519395 116.96919077 40.05545626 117.78237567 40.05572652 118.62020255 C40.06008343 131.80477673 40.0679711 144.98934658 40.0771528 158.17391818 C40.08648875 171.69226108 40.09205549 185.2106017 40.09408849 198.7289477 C40.09546384 207.07731829 40.09981508 215.42567663 40.10791647 223.77404345 C40.11318321 229.49092429 40.11480446 235.20779874 40.11350138 240.92468183 C40.11285788 244.22802503 40.11441521 247.53134204 40.11920547 250.83468246 C40.12413533 254.40766372 40.12300092 257.98059127 40.12025452 261.55357361 C40.12316736 262.6089987 40.1260802 263.6644238 40.12908131 264.75183147 C40.12709026 265.70130612 40.12509921 266.65078076 40.12304783 267.62902737 C40.12361741 268.86786494 40.12361741 268.86786494 40.1241985 270.13172954 C40 272 40 272 39 273 C26.13 273 13.26 273 0 273 C0 182.91 0 92.82 0 0 Z " fill="#ED3941" transform="translate(383,449)"/>
<path d="M0 0 C18.81 0 37.62 0 57 0 C57 19.14 57 38.28 57 58 C38.19 58 19.38 58 0 58 C0 38.86 0 19.72 0 0 Z " fill="#EC3B42" transform="translate(1560,664)"/>
</svg>
