<?xml version="1.0" standalone="no"?>
<!DOCTYPE svg PUBLIC "-//W3C//DTD SVG 20010904//EN"
 "http://www.w3.org/TR/2001/REC-SVG-20010904/DTD/svg10.dtd">
<svg version="1.0" xmlns="http://www.w3.org/2000/svg"
 width="800.000000pt" height="800.000000pt" viewBox="0 0 800.000000 800.000000"
 preserveAspectRatio="xMidYMid meet">
<metadata>
Created by potrace 1.14, written by Peter Selinger 2001-2017
</metadata>
<g transform="translate(0.000000,800.000000) scale(0.100000,-0.100000)"
fill="#000000" stroke="none">
<path d="M2479 7910 c-1 -33 -1 -2283 0 -2292 1 -5 53 -8 116 -8 l115 0 0
1045 0 1045 1290 0 1290 0 0 -1045 0 -1045 115 0 c63 0 115 3 116 8 4 34 3
2306 -1 2311 -3 4 -688 7 -1522 7 l-1518 -1 -1 -25z"/>
<path d="M2479 5278 c-1 -30 -1 -2538 0 -2560 1 -17 17 -18 186 -18 l185 0 0
1300 0 1300 -185 0 c-185 0 -185 0 -186 -22z"/>
<path d="M3797 5289 c-118 -28 -222 -127 -263 -252 -15 -44 -17 -106 -18 -451
-1 -221 2 -426 7 -456 22 -149 135 -271 282 -305 35 -8 247 -11 698 -11 l647
1 0 -372 0 -373 -649 0 -649 0 0 128 c0 70 -1 145 -1 167 l-1 41 -186 0 -186
0 4 -215 c4 -211 4 -217 31 -272 36 -73 112 -150 184 -186 l58 -28 745 0 745
0 66 32 c106 53 187 158 205 268 9 55 9 809 0 870 -23 150 -154 280 -304 304
-26 4 -334 7 -685 6 l-637 0 0 373 0 372 630 0 630 0 0 -168 0 -167 185 -1
c123 0 185 3 186 10 4 49 0 360 -5 391 -18 110 -105 221 -216 274 l-55 26
-705 2 c-395 1 -722 -3 -743 -8z"/>
<path d="M2479 2388 c-4 -14 -2 -2293 2 -2306 6 -16 100 -17 1523 -17 1015 0
1516 3 1517 10 0 5 1 528 2 1160 l0 1150 -116 3 -117 3 0 -1046 0 -1045 -1290
0 -1290 0 0 1045 0 1045 -115 0 c-63 0 -115 -1 -116 -2z"/>
</g>
</svg>
